<?xml version="1.0" standalone="no"?>
<!DOCTYPE svg PUBLIC "-//W3C//DTD SVG 20010904//EN"
 "http://www.w3.org/TR/2001/REC-SVG-20010904/DTD/svg10.dtd">
<svg version="1.0" xmlns="http://www.w3.org/2000/svg"
 width="494.000000pt" height="505.000000pt" viewBox="0 0 494.000000 505.000000"
 preserveAspectRatio="xMidYMid meet">

<g transform="translate(0.000000,505.000000) scale(0.100000,-0.100000)"
fill="#000000" stroke="none">
<path d="M2335 5009 c-480 -37 -919 -293 -1179 -688 -86 -130 -117 -189 -159
-301 -143 -388 -132 -810 31 -1163 93 -200 260 -483 543 -919 314 -484 364
-570 534 -913 157 -316 290 -661 359 -925 8 -31 16 -48 19 -40 3 8 20 65 38
125 17 61 36 125 41 144 14 50 131 354 171 446 151 345 344 688 666 1180 251
382 311 484 437 730 124 245 154 322 195 500 32 141 33 421 1 572 -74 345
-239 635 -487 856 -101 89 -161 132 -285 202 -261 148 -602 220 -925 194z
m255 -943 c174 -37 328 -154 406 -309 35 -68 64 -188 64 -262 0 -138 -61 -292
-157 -396 -72 -77 -139 -121 -237 -154 -313 -105 -641 58 -743 370 -136 420
238 842 667 751z"/>
</g>
</svg>
